<svg xmlns="http://www.w3.org/2000/svg" viewBox="0 0 220.94 220.94"><defs><style>.cls-1{fill:#e2a231;}.cls-2{fill:#e3a230;}.cls-3{fill:#eaac3b;}.cls-4{fill:#eaaa32;}.cls-5{fill:#eaab35;}.cls-6{fill:#eaad3c;}.cls-7{fill:#eaac39;}.cls-8{fill:#eaad3d;}.cls-9{fill:#eaad3e;}.cls-10{fill:#e8ad3f;}.cls-11{fill:#e2a335;}</style></defs><title>eyeРесурс 1mix</title><g id="Слой_2" data-name="Слой 2"><g id="Слой_1-2" data-name="Слой 1"><circle cx="110.47" cy="110.47" r="110.47"/><g id="YYzrfq"><path class="cls-1" d="M55.34,95.54a66.85,66.85,0,0,1,.12-19.87,10.18,10.18,0,0,1,6-8.33c5.76-2.85,11.37-6,18-7.62C67.15,82.8,68.36,100.64,83,114.65c12.06,11.57,31.69,14.58,45.68,6.21-6,.18-10.61-1.22-14-5.17a15.09,15.09,0,0,1-3.71-13.44c1.69-8.26,9.89-13.87,17.84-12.34,9.46,1.83,14.07,9.38,12.44,20.38,4.84-3.6,9-13.54,9.39-22.41a40.93,40.93,0,0,0-7.39-25.42c-.43-.63-3.29-2.17.29-2.6,5.87,3,12.15,5,17.81,8.52a8.15,8.15,0,0,1,4.15,5.71A56,56,0,0,1,59.94,109.55C57.85,105.09,55.74,100.58,55.34,95.54Z"/><path class="cls-2" d="M21.77,107.93c4.38-6.8,8.43-13.82,14-19.74.64-.68,1-1.76,2.44-1.81q.59,3.74,1.19,7.5c3.28,28.2,18.52,47.82,44.31,58.47,45.87,18.93,96.27-13.66,98.81-63.24,0-.83.08-1.65.16-3.35a43.16,43.16,0,0,1,9.5,11c10.28,16.23,10.89,11.63-.15,27.5C155.94,176.19,80.25,181,37.23,134.56a109.52,109.52,0,0,1-14.58-19.72C21.44,112.75,20,110.5,21.77,107.93Z"/><path class="cls-3" d="M145.93,44.37c-22.24-7.81-44.72-7.71-67.17-1.33C53.08,50.34,32.38,65,16.6,86.56L14.14,89.9c-1.06-5.36-.83-5.84,7.6-16.33,25-26.19,55.54-39.83,91.75-38.88,36.76,1,67.08,16.13,90.62,44.55,2.47,3,4.14,6.19,3.34,11.39C192,67.46,171.27,52.76,145.93,44.37Z"/><path class="cls-4" d="M13.36,134.54c0-1.33-.47-2.79.91-3.8,12.52,19.77,30,33.66,51.36,42.69a115.86,115.86,0,0,0,138.73-38.54l3-4.23c.89,5-.81,8.13-3.23,11.08-20.37,24.79-46.39,39.83-78.24,43.6-42.59,5-78.21-9.12-106.82-41C16.55,141.44,14.23,138.41,13.36,134.54Z"/><path class="cls-5" d="M19.52,152.53l1.05-.88c33.8,37.35,90.22,49.07,139,28.75,15.72-6.54,29.32-16.29,42.1-29.52-2.07,6-4.49,10.16-8.38,13.44-47.45,40-118.24,40-165.54,0C23.94,161,22.13,156.55,19.52,152.53Z"/><path class="cls-6" d="M201.7,68.54l-1.09,1a114.86,114.86,0,0,0-65.49-36.32C90.71,25,52.35,37.1,20.58,69.44c0-3.88,2.8-8.87,7-12.42,2.62-2.22,5.34-4.34,8-6.5.25-2.24,1.84-3.37,3.56-4.48a132.16,132.16,0,0,1,58.39-20.6C127.6,22.11,155,29.53,180.47,45a73.4,73.4,0,0,1,19.27,16.71C201.19,63.5,203.23,65.65,201.7,68.54Z"/><path class="cls-7" d="M186.55,174.82c-7,10.92-18.23,15.28-29.57,19.31C120.05,207.26,84,204.5,48.91,187.6c-6-2.89-10.1-6.65-15.18-13.75C57.54,190.33,83,198.4,110.5,198.4S163.56,190.4,186.55,174.82Z"/><path class="cls-8" d="M65,198.76c29.66,10,59.36,10.5,89.17.64C131.22,213.62,92.31,214.67,65,198.76Z"/><path d="M201.7,68.54c-8.21-16.37-23.65-24.12-39.12-30.72C119.15,19.31,77.33,23.42,37.76,49.34c-.69.45-1.45.79-2.17,1.18l-1.14-3.43c5.38-7,12.86-10.92,20.72-14.36,19.36-8.45,39.59-13.38,60.7-12,24.45,1.59,47.91,7.16,67.84,22.75a17.49,17.49,0,0,1,3.84,3.89c3.34,4.88,8.77,7.59,12.52,12.07,1.85,2.2,3.66,4.39,4.18,7.24C204.58,68.48,204.43,70.49,201.7,68.54Z"/><path class="cls-9" d="M187.55,47.36C163.74,30.42,137,22.05,108,22.72c-26.78.61-51.7,8.23-73.56,24.37,2.88-6.54,8.25-10.65,14.37-13.56,30.09-14.28,61.27-19.31,94-10.71,10.33,2.7,20.41,5.95,29.92,10.83A37.43,37.43,0,0,1,187.55,47.36Z"/><path class="cls-10" d="M156.45,22c-54.09-12.34-55.57-7.82-91.6.07C90.1,7,129.54,6.45,156.45,22Z"/><path class="cls-11" d="M95.45,87.94a6.84,6.84,0,0,1-13.68-.43,6.84,6.84,0,0,1,13.68.43Z"/></g></g></g></svg>